<?xml version="1.0" encoding="UTF-8"?>
<svg version="1.1" xmlns="http://www.w3.org/2000/svg" width="400" height="400">
<path d="M0 0 C1.2899233 -0.00538554 2.5798466 -0.01077108 3.90885848 -0.01631981 C7.45994818 -0.0306827 11.01080398 -0.02655867 14.56190598 -0.019153 C18.4032105 -0.0144007 22.2444659 -0.02694938 26.08575439 -0.03717041 C33.60011185 -0.05432409 41.11438557 -0.05520549 48.62875751 -0.04995751 C54.74013047 -0.04590782 60.85147878 -0.04736884 66.96285057 -0.05270576 C67.83433221 -0.05345419 68.70581385 -0.05420261 69.60370403 -0.05497371 C71.37441893 -0.05650527 73.14513381 -0.05804362 74.91584869 -0.05958868 C91.50363008 -0.07330156 108.09136423 -0.06788478 124.67914452 -0.05640347 C139.83303883 -0.04647452 154.98681097 -0.05940805 170.14068643 -0.08333766 C185.72398597 -0.10775877 201.30722869 -0.117329 216.89054698 -0.11068493 C225.63003796 -0.10719912 234.36943506 -0.10938239 243.10891151 -0.12693596 C250.549364 -0.14169575 257.98965649 -0.14224434 265.43010596 -0.12486505 C269.22129084 -0.11638322 273.01219038 -0.11413577 276.80335999 -0.1295166 C280.92536901 -0.14603165 285.04669668 -0.13114686 289.16870117 -0.11352539 C290.94058602 -0.1279329 290.94058602 -0.1279329 292.74826652 -0.14263147 C306.98365564 -0.01809522 319.74366691 3.93285995 330.2787323 13.7118988 C341.74122751 25.74090943 345.24490277 39.32628483 345.1625061 55.612854 C345.17058441 57.54773895 345.17058441 57.54773895 345.17882591 59.52171248 C345.1931888 63.07280218 345.18906478 66.62365798 345.1816591 70.17475998 C345.1769068 74.0160645 345.18945548 77.8573199 345.19967651 81.6986084 C345.2168302 89.21296586 345.21771159 96.72723957 345.21246361 104.24161152 C345.20841392 110.35298448 345.20987494 116.46433278 345.21521187 122.57570457 C345.21596029 123.44718622 345.21670871 124.31866786 345.21747981 125.21655804 C345.21901137 126.98727293 345.22054972 128.75798782 345.22209478 130.5287027 C345.23580766 147.11648408 345.23039089 163.70421824 345.21890957 180.29199853 C345.20898063 195.44589283 345.22191415 210.59966497 345.24584376 225.75354043 C345.27026487 241.33683998 345.2798351 256.9200827 345.27319103 272.50340098 C345.26970522 281.24289196 345.2718885 289.98228906 345.28944206 298.72176552 C345.30420186 306.162218 345.30475044 313.60251049 345.28737115 321.04295997 C345.27888932 324.83414484 345.27664187 328.62504438 345.29202271 332.41621399 C345.30853775 336.53822301 345.29365296 340.65955069 345.27603149 344.78155518 C345.2856365 345.96281174 345.29524151 347.1440683 345.30513757 348.36112052 C345.18060133 362.59650964 341.22964615 375.35652092 331.4506073 385.8915863 C319.42159668 397.35408151 305.83622128 400.85775678 289.5496521 400.77536011 C288.2597288 400.78074565 286.9698055 400.78613118 285.64079362 400.79167992 C282.08970392 400.80604281 278.53884812 400.80191878 274.98774612 400.79451311 C271.1464416 400.78976081 267.3051862 400.80230949 263.46389771 400.81253052 C255.94954025 400.8296842 248.43526653 400.8305656 240.92089459 400.82531761 C234.80952163 400.82126792 228.69817332 400.82272895 222.58680153 400.82806587 C221.71531989 400.82881429 220.84383824 400.82956272 219.94594807 400.83033382 C218.17523317 400.83186538 216.40451829 400.83340373 214.6338034 400.83494879 C198.04602202 400.84866166 181.45828787 400.84324489 164.87050758 400.83176357 C149.71661327 400.82183463 134.56284113 400.83476815 119.40896567 400.85869776 C103.82566613 400.88311888 88.24242341 400.89268911 72.65910512 400.88604504 C63.91961414 400.88255923 55.18021704 400.8847425 46.44074059 400.90229607 C39.0002881 400.91705586 31.55999561 400.91760445 24.11954614 400.90022516 C20.32836126 400.89174333 16.53746172 400.88949588 12.74629211 400.90487671 C8.62428309 400.92139175 4.50295542 400.90650696 0.38095093 400.8888855 C-0.80030564 400.8984905 -1.9815622 400.90809551 -3.19861442 400.91799158 C-17.43400354 400.79345533 -30.19401481 396.84250016 -40.7290802 387.0634613 C-52.19157541 375.03445068 -55.69525067 361.44907528 -55.612854 345.1625061 C-55.61823954 343.87258281 -55.62362508 342.58265951 -55.62917382 341.25364763 C-55.6435367 337.70255793 -55.63941268 334.15170213 -55.632007 330.60060012 C-55.6272547 326.75929561 -55.63980338 322.91804021 -55.65002441 319.07675171 C-55.6671781 311.56239425 -55.66805949 304.04812054 -55.66281151 296.53374859 C-55.65876182 290.42237563 -55.66022284 284.31102732 -55.66555977 278.19965553 C-55.66630819 277.32817389 -55.66705661 276.45669225 -55.66782771 275.55880207 C-55.66935927 273.78808718 -55.67089762 272.01737229 -55.67244268 270.24665741 C-55.68615556 253.65887603 -55.68073879 237.07114187 -55.66925747 220.48336158 C-55.65932853 205.32946728 -55.67226205 190.17569514 -55.69619166 175.02181967 C-55.72061277 159.43852013 -55.730183 143.85527741 -55.72353894 128.27195913 C-55.72005312 119.53246814 -55.7222364 110.79307104 -55.73978996 102.05359459 C-55.75454976 94.61314211 -55.75509835 87.17284961 -55.73771905 79.73240014 C-55.72923722 75.94121526 -55.72698977 72.15031572 -55.74237061 68.35914612 C-55.75888565 64.23713709 -55.74400086 60.11580942 -55.72637939 55.99380493 C-55.7359844 54.81254837 -55.74558941 53.6312918 -55.75548548 52.41423959 C-55.63094923 38.17885047 -51.67999405 25.41883919 -41.9009552 14.8837738 C-29.87194458 3.42127859 -16.28656918 -0.08239667 0 0 Z " fill="#FEFEFE" transform="translate(55.22517395019531,-0.3876800537109375)"/>
<path d="M0 0 C1.35449399 0.00334608 1.35449399 0.00334608 2.73635149 0.00675976 C3.68796805 0.00519977 4.63958461 0.00363978 5.62003803 0.00203252 C8.83456512 -0.00198188 12.04904566 0.00121386 15.26357317 0.00434887 C17.55763575 0.00299503 19.85169811 0.00121519 22.14576006 -0.00096118 C28.39557406 -0.0055375 34.64537164 -0.00374514 40.89518595 -0.0005821 C47.41971555 0.00194048 53.94424371 -0.00039575 60.46877337 -0.00196826 C72.1308983 -0.00390714 83.79301571 -0.00078928 95.45513946 0.00429107 C106.03956249 0.00875912 116.62397456 0.00798319 127.20839739 0.00337231 C139.48531659 -0.00197332 151.76222799 -0.00397436 164.03914833 -0.00101542 C170.54324498 0.00054782 177.04733406 0.00073983 183.55143023 -0.00255191 C189.66459265 -0.00542939 195.77773425 -0.00345721 201.89089441 0.00234234 C204.14160487 0.00367061 206.39231705 0.00327472 208.64302683 0.00107968 C211.7014215 -0.00162925 214.75974832 0.00174613 217.8181386 0.00675976 C218.72113459 0.00452904 219.62413058 0.00229832 220.55449009 0 C226.66309523 0.01959359 226.66309523 0.01959359 227.77724504 1.13374341 C227.87746894 4.12761193 227.91162582 7.09848985 227.90422869 10.09284985 C227.90578868 11.04446641 227.90734867 11.99608297 227.90895593 12.97653639 C227.91297033 16.19106348 227.90977459 19.40554402 227.90663958 22.62007153 C227.90799342 24.91413411 227.90977326 27.20819647 227.91194963 29.50225842 C227.91652595 35.75207242 227.91473359 42.00187 227.91157055 48.25168431 C227.90904797 54.77621392 227.9113842 61.30074207 227.91295671 67.82527173 C227.91489559 79.48739666 227.91177773 91.14951407 227.90669738 102.81163782 C227.90222933 113.39606085 227.90300526 123.98047292 227.90761614 134.56489575 C227.91296177 146.84181496 227.91496281 159.11872635 227.91200387 171.39564669 C227.91044063 177.89974334 227.91024862 184.40383242 227.91354036 190.90792859 C227.91641784 197.02109101 227.91444566 203.13423261 227.90864611 209.24739277 C227.90731784 211.49810323 227.90771373 213.74881542 227.90990877 215.99952519 C227.9126177 219.05791986 227.90924232 222.11624668 227.90422869 225.17463696 C227.90645941 226.07763295 227.90869013 226.98062894 227.91098845 227.91098845 C227.89139486 234.01959359 227.89139486 234.01959359 226.77724504 235.13374341 C223.76846716 235.23175065 220.78263286 235.2636559 217.77344561 235.25399792 C216.33883709 235.25527956 216.33883709 235.25527956 214.87524658 235.25658709 C211.64456278 235.25824481 208.41392999 235.25271577 205.1832509 235.2472688 C202.87771401 235.24698696 200.57217703 235.24714459 198.26664019 235.2477113 C191.98590018 235.24799942 185.70517908 235.24210038 179.42444348 235.23513734 C172.8687509 235.22890618 166.31305793 235.2283002 159.75736284 235.22711194 C148.74697842 235.22451882 137.73660067 235.21809663 126.72621965 235.20918286 C115.38344657 235.20000951 104.04067538 235.1929283 92.69789934 235.18867505 C91.9992051 235.18841232 91.30051086 235.1881496 90.58064406 235.18787891 C87.07564204 235.18657392 83.57064 235.1853102 80.06563795 235.18406701 C50.96950244 235.17369347 21.87337384 235.15600022 -7.22275496 235.13374341 C-7.24554498 205.34055028 -7.26325295 175.54735745 -7.27382028 145.75415749 C-7.27507106 142.24046801 -7.27636538 138.72677856 -7.2776866 135.21308911 C-7.27794891 134.51354756 -7.27821122 133.81400602 -7.27848148 133.09326624 C-7.28283824 121.75165172 -7.29072582 110.41004225 -7.29990775 99.06843073 C-7.30924412 87.4394685 -7.31473563 75.81050921 -7.31684345 64.18154341 C-7.318151 57.64613037 -7.32123963 51.11072879 -7.32848501 44.57531941 C-7.33524114 38.43180493 -7.33737275 32.2883067 -7.33586264 26.14478886 C-7.33613915 23.88279011 -7.33814667 21.62079084 -7.34196043 19.35879529 C-7.34689132 16.28502409 -7.34575549 13.2113153 -7.34300947 10.13754284 C-7.34592231 9.22997378 -7.34883515 8.32240472 -7.35183626 7.38733357 C-7.33424026 0.16611417 -7.22371573 0.02317035 0 0 Z " fill="#FDFDFD" transform="translate(90.22275495529175,82.8662565946579)"/>
<path d="M0 0 C1.35449399 0.00334608 1.35449399 0.00334608 2.73635149 0.00675976 C3.68796805 0.00519977 4.63958461 0.00363978 5.62003803 0.00203252 C8.83456512 -0.00198188 12.04904566 0.00121386 15.26357317 0.00434887 C17.55763575 0.00299503 19.85169811 0.00121519 22.14576006 -0.00096118 C28.39557406 -0.0055375 34.64537164 -0.00374514 40.89518595 -0.0005821 C47.41971555 0.00194048 53.94424371 -0.00039575 60.46877337 -0.00196826 C72.1308983 -0.00390714 83.79301571 -0.00078928 95.45513946 0.00429107 C106.03956249 0.00875912 116.62397456 0.00798319 127.20839739 0.00337231 C139.48531659 -0.00197332 151.76222799 -0.00397436 164.03914833 -0.00101542 C170.54324498 0.00054782 177.04733406 0.00073983 183.55143023 -0.00255191 C189.66459265 -0.00542939 195.77773425 -0.00345721 201.89089441 0.00234234 C204.14160487 0.00367061 206.39231705 0.00327472 208.64302683 0.00107968 C211.7014215 -0.00162925 214.75974832 0.00174613 217.8181386 0.00675976 C218.72113459 0.00452904 219.62413058 0.00229832 220.55449009 0 C226.66309523 0.01959359 226.66309523 0.01959359 227.77724504 1.13374341 C227.87746894 4.12761193 227.91162582 7.09848985 227.90422869 10.09284985 C227.90578868 11.04446641 227.90734867 11.99608297 227.90895593 12.97653639 C227.91297033 16.19106348 227.90977459 19.40554402 227.90663958 22.62007153 C227.90799342 24.91413411 227.90977326 27.20819647 227.91194963 29.50225842 C227.91652595 35.75207242 227.91473359 42.00187 227.91157055 48.25168431 C227.90904797 54.77621392 227.9113842 61.30074207 227.91295671 67.82527173 C227.91489559 79.48739666 227.91177773 91.14951407 227.90669738 102.81163782 C227.90222933 113.39606085 227.90300526 123.98047292 227.90761614 134.56489575 C227.91296177 146.84181496 227.91496281 159.11872635 227.91200387 171.39564669 C227.91044063 177.89974334 227.91024862 184.40383242 227.91354036 190.90792859 C227.91641784 197.02109101 227.91444566 203.13423261 227.90864611 209.24739277 C227.90731784 211.49810323 227.90771373 213.74881542 227.90990877 215.99952519 C227.9126177 219.05791986 227.90924232 222.11624668 227.90422869 225.17463696 C227.90645941 226.07763295 227.90869013 226.98062894 227.91098845 227.91098845 C227.89139486 234.01959359 227.89139486 234.01959359 226.77724504 235.13374341 C223.76846716 235.23175065 220.78263286 235.2636559 217.77344561 235.25399792 C216.33883709 235.25527956 216.33883709 235.25527956 214.87524658 235.25658709 C211.64456278 235.25824481 208.41392999 235.25271577 205.1832509 235.2472688 C202.87771401 235.24698696 200.57217703 235.24714459 198.26664019 235.2477113 C191.98590018 235.24799942 185.70517908 235.24210038 179.42444348 235.23513734 C172.8687509 235.22890618 166.31305793 235.2283002 159.75736284 235.22711194 C148.74697842 235.22451882 137.73660067 235.21809663 126.72621965 235.20918286 C115.38344657 235.20000951 104.04067538 235.1929283 92.69789934 235.18867505 C91.9992051 235.18841232 91.30051086 235.1881496 90.58064406 235.18787891 C87.07564204 235.18657392 83.57064 235.1853102 80.06563795 235.18406701 C50.96950244 235.17369347 21.87337384 235.15600022 -7.22275496 235.13374341 C-7.24554498 205.34055028 -7.26325295 175.54735745 -7.27382028 145.75415749 C-7.27507106 142.24046801 -7.27636538 138.72677856 -7.2776866 135.21308911 C-7.27794891 134.51354756 -7.27821122 133.81400602 -7.27848148 133.09326624 C-7.28283824 121.75165172 -7.29072582 110.41004225 -7.29990775 99.06843073 C-7.30924412 87.4394685 -7.31473563 75.81050921 -7.31684345 64.18154341 C-7.318151 57.64613037 -7.32123963 51.11072879 -7.32848501 44.57531941 C-7.33524114 38.43180493 -7.33737275 32.2883067 -7.33586264 26.14478886 C-7.33613915 23.88279011 -7.33814667 21.62079084 -7.34196043 19.35879529 C-7.34689132 16.28502409 -7.34575549 13.2113153 -7.34300947 10.13754284 C-7.34592231 9.22997378 -7.34883515 8.32240472 -7.35183626 7.38733357 C-7.33424026 0.16611417 -7.22371573 0.02317035 0 0 Z M-5.22275496 3.13374341 C-5.22275496 78.70374341 -5.22275496 154.27374341 -5.22275496 232.13374341 C70.67724504 232.13374341 146.57724504 232.13374341 224.77724504 232.13374341 C224.77724504 156.56374341 224.77724504 80.99374341 224.77724504 3.13374341 C148.87724504 3.13374341 72.97724504 3.13374341 -5.22275496 3.13374341 Z " fill="#1C1C1C" transform="translate(90.22275495529175,82.8662565946579)"/>
<path d="M0 0 C76.23 0 152.46 0 231 0 C231 0.33 231 0.66 231 1 C118.14 1.495 118.14 1.495 3 2 C2.67 77.9 2.34 153.8 2 232 C77.57 232 153.14 232 231 232 C231 232.33 231 232.66 231 233 C154.77 233 78.54 233 0 233 C0 156.11 0 79.22 0 0 Z " fill="#050505" transform="translate(83,84)"/>
</svg>
